<mxfile host="app.diagrams.net" modified="2023-10-25T19:08:43.576Z" agent="Mozilla/5.0 (Windows NT 10.0; Win64; x64) AppleWebKit/537.36 (KHTML, like Gecko) Chrome/118.0.0.0 Safari/537.36" etag="f80c998z4Ugg3IrHUP7B" version="22.0.8" type="device">
  <diagram name="PÃ¡gina-1" id="fypwIjJlidUytwnqRtJm">
    <mxGraphModel dx="989" dy="527" grid="1" gridSize="10" guides="1" tooltips="1" connect="1" arrows="1" fold="1" page="1" pageScale="1" pageWidth="827" pageHeight="1169" math="0" shadow="0">
      <root>
        <mxCell id="0" />
        <mxCell id="1" parent="0" />
        <mxCell id="uwD5iTpehBykrG4KmboC-1" value="" style="edgeStyle=orthogonalEdgeStyle;rounded=0;orthogonalLoop=1;jettySize=auto;html=1;" edge="1" parent="1" source="uwD5iTpehBykrG4KmboC-2" target="uwD5iTpehBykrG4KmboC-4">
          <mxGeometry relative="1" as="geometry" />
        </mxCell>
        <mxCell id="uwD5iTpehBykrG4KmboC-2" value="INICIO" style="rounded=1;whiteSpace=wrap;html=1;" vertex="1" parent="1">
          <mxGeometry x="90" y="20" width="120" height="60" as="geometry" />
        </mxCell>
        <mxCell id="uwD5iTpehBykrG4KmboC-3" value="" style="edgeStyle=orthogonalEdgeStyle;rounded=0;orthogonalLoop=1;jettySize=auto;html=1;" edge="1" parent="1" source="uwD5iTpehBykrG4KmboC-4" target="uwD5iTpehBykrG4KmboC-5">
          <mxGeometry relative="1" as="geometry" />
        </mxCell>
        <mxCell id="uwD5iTpehBykrG4KmboC-4" value="Configuramos los pines RB0-RB3 como salida" style="rounded=0;whiteSpace=wrap;html=1;" vertex="1" parent="1">
          <mxGeometry x="90" y="110" width="120" height="60" as="geometry" />
        </mxCell>
        <mxCell id="uwD5iTpehBykrG4KmboC-5" value="Llamo ENCENDER_1_500" style="rounded=0;whiteSpace=wrap;html=1;" vertex="1" parent="1">
          <mxGeometry x="90" y="240" width="120" height="60" as="geometry" />
        </mxCell>
        <mxCell id="uwD5iTpehBykrG4KmboC-6" value="" style="edgeStyle=orthogonalEdgeStyle;rounded=0;orthogonalLoop=1;jettySize=auto;html=1;" edge="1" parent="1" source="uwD5iTpehBykrG4KmboC-7" target="uwD5iTpehBykrG4KmboC-9">
          <mxGeometry relative="1" as="geometry" />
        </mxCell>
        <mxCell id="uwD5iTpehBykrG4KmboC-7" value="ENCENDER_1_500" style="shape=process;whiteSpace=wrap;html=1;backgroundOutline=1;" vertex="1" parent="1">
          <mxGeometry x="370" y="20" width="160" height="60" as="geometry" />
        </mxCell>
        <mxCell id="uwD5iTpehBykrG4KmboC-8" value="" style="edgeStyle=orthogonalEdgeStyle;rounded=0;orthogonalLoop=1;jettySize=auto;html=1;" edge="1" parent="1" source="uwD5iTpehBykrG4KmboC-9" target="uwD5iTpehBykrG4KmboC-11">
          <mxGeometry relative="1" as="geometry" />
        </mxCell>
        <mxCell id="uwD5iTpehBykrG4KmboC-9" value="Llamo ENCENDER_TODOS&lt;br&gt;(todos los pines en alto)" style="whiteSpace=wrap;html=1;" vertex="1" parent="1">
          <mxGeometry x="382.5" y="120" width="135" height="70" as="geometry" />
        </mxCell>
        <mxCell id="uwD5iTpehBykrG4KmboC-10" value="" style="edgeStyle=orthogonalEdgeStyle;rounded=0;orthogonalLoop=1;jettySize=auto;html=1;" edge="1" parent="1" source="uwD5iTpehBykrG4KmboC-11" target="uwD5iTpehBykrG4KmboC-13">
          <mxGeometry relative="1" as="geometry" />
        </mxCell>
        <mxCell id="uwD5iTpehBykrG4KmboC-11" value="Llamo 2 veces DELAY500&lt;br&gt;(Retardo de 500ms*2)" style="whiteSpace=wrap;html=1;" vertex="1" parent="1">
          <mxGeometry x="380" y="230" width="140" height="60" as="geometry" />
        </mxCell>
        <mxCell id="uwD5iTpehBykrG4KmboC-12" value="" style="edgeStyle=orthogonalEdgeStyle;rounded=0;orthogonalLoop=1;jettySize=auto;html=1;" edge="1" parent="1" source="uwD5iTpehBykrG4KmboC-13" target="uwD5iTpehBykrG4KmboC-15">
          <mxGeometry relative="1" as="geometry" />
        </mxCell>
        <mxCell id="uwD5iTpehBykrG4KmboC-13" value="Set 0 todo PORTB&lt;br&gt;(todos los pines en bajo)" style="whiteSpace=wrap;html=1;" vertex="1" parent="1">
          <mxGeometry x="380" y="330" width="140" height="60" as="geometry" />
        </mxCell>
        <mxCell id="uwD5iTpehBykrG4KmboC-14" style="edgeStyle=orthogonalEdgeStyle;rounded=0;orthogonalLoop=1;jettySize=auto;html=1;entryX=1;entryY=0.5;entryDx=0;entryDy=0;" edge="1" parent="1" source="uwD5iTpehBykrG4KmboC-15" target="uwD5iTpehBykrG4KmboC-7">
          <mxGeometry relative="1" as="geometry">
            <Array as="points">
              <mxPoint x="600" y="460" />
              <mxPoint x="600" y="50" />
            </Array>
          </mxGeometry>
        </mxCell>
        <mxCell id="uwD5iTpehBykrG4KmboC-15" value="Llamo DELAY500&lt;br style=&quot;border-color: var(--border-color);&quot;&gt;(Retardo de 500ms)" style="whiteSpace=wrap;html=1;" vertex="1" parent="1">
          <mxGeometry x="380" y="430" width="140" height="60" as="geometry" />
        </mxCell>
      </root>
    </mxGraphModel>
  </diagram>
</mxfile>
